<svg id="Layer_1" data-name="Layer 1" xmlns="http://www.w3.org/2000/svg" viewBox="0 0 620.73 223.67"><defs><style>.cls-1{fill:#4346af;}.cls-2{fill:#4ea37d;}.cls-3{fill:#00703e;}</style></defs><path class="cls-1" d="M818,298.08a19.92,19.92,0,1,0,19.91-19.92A20,20,0,0,0,818,298.08Zm19.91-13.28a13.28,13.28,0,1,1-13.27,13.28A13.31,13.31,0,0,1,837.93,284.8Z" transform="translate(-250.73 -264.55)"/><rect class="cls-1" x="583.88" y="0.33" width="6.64" height="6.64"/><rect class="cls-1" x="583.88" y="60.08" width="6.64" height="6.64"/><rect class="cls-1" x="613.76" y="30.21" width="6.64" height="6.64"/><rect class="cls-1" x="554.01" y="30.21" width="6.64" height="6.64"/><rect class="cls-1" x="855.9" y="315.89" width="6.64" height="6.64" transform="translate(-224.73 436.62) rotate(-45.01)"/><rect class="cls-1" x="813.32" y="273.64" width="6.64" height="6.64" transform="translate(-207.33 394.13) rotate(-45.01)"/><rect class="cls-1" x="813.49" y="316.05" width="6.64" height="6.64" transform="translate(-237.37 406.45) rotate(-44.99)"/><rect class="cls-1" x="855.74" y="273.46" width="6.64" height="6.64" transform="translate(-194.89 423.85) rotate(-44.99)"/><path class="cls-1" d="M870.8,412.93h0a1,1,0,0,1-.33-.66l-19.92-29.88a4.12,4.12,0,0,0-2.66-1.32H821.34a4.12,4.12,0,0,0-2.66,1.32h0l-19.92,29.88a.32.32,0,0,1-.33.33v.33c0,.33-.33.67-.33,1h0V443.8a17.07,17.07,0,0,0-10-3.32,17.92,17.92,0,0,0-10,3.32,24,24,0,0,0-6.64-3v-7.31c17.6-2.32,26.56-24.56,26.56-66.05,0-43.16-10.29-102.91-29.87-102.91s-29.88,59.75-29.88,102.91c0,41.49,9,63.73,26.56,66.05v7.31a13.3,13.3,0,0,0-6.64,3,17,17,0,0,0-19.92,0,17,17,0,0,0-19.92,0c-3.65-3-8.63-3.65-13.28-3v-7.31c17.6-2.32,26.56-24.56,26.56-66.05,0-43.16-10.29-102.91-29.87-102.91S672,324.63,672,367.79c0,41.49,9,63.73,26.56,66.06v10.29a15.64,15.64,0,0,0-10-3.32A16.43,16.43,0,0,0,672,457.41a23,23,0,0,0,.66,4.32,3.3,3.3,0,0,0,3.32,2.32h192.2a3.13,3.13,0,0,0,3.32-3.32V414.26h0C871.13,413.93,871.13,413.6,870.8,412.93ZM678.6,367.79c0-50.79,12.94-96.27,23.23-96.27s23.24,45.48,23.24,96.27c0,25.56-3.65,55.77-19.92,59.42V369.12l12.29-12.29-4.65-4.64-7.64,7.63V337.91h-6.63v8.63l-7.64-7.63-4.65,4.64,12.29,12.29v27.22l-7.64-7.64-4.65,4.65,12.29,12.28v34.86C682.25,423.56,678.6,393.35,678.6,367.79ZM846.23,387.7l15.61,23.24H843.25L827.64,387.7Zm-24.89,2.66L835,410.94H807.4ZM745,367.79c0-50.79,12.94-96.27,23.24-96.27s23.23,45.48,23.23,96.27c0,25.56-3.65,55.77-19.92,59.42V369.12l12.29-12.29-4.65-4.64-7.64,7.63V337.91h-6.63v8.63l-7.64-7.63-4.65,4.64,12.29,12.29v27.22l-7.64-7.64-4.65,4.65,12.29,12.28v34.86C748.64,423.56,745,393.35,745,367.79ZM678.6,457.41a9.77,9.77,0,0,1,10-10,9.52,9.52,0,0,1,7.3,3.31,3.74,3.74,0,0,0,2.66,1v5.64Zm26.55,0v-9.29a9.87,9.87,0,0,1,10.63,2.65,3.61,3.61,0,0,0,5,0,10.24,10.24,0,0,1,14.93,0,3.61,3.61,0,0,0,5,0,10.25,10.25,0,0,1,14.94,0,3.61,3.61,0,0,0,5,0,7.78,7.78,0,0,1,4-2.65v9.29Zm66.39-9.29a8.52,8.52,0,0,1,4,2.65,3.61,3.61,0,0,0,5,0,9.4,9.4,0,0,1,7.3-3.31,9.78,9.78,0,0,1,10,10H771.21v-9.29Zm33.2-30.54h33.19v39.83H831.3V434.18a3.14,3.14,0,0,0-3.32-3.32H814.7a3.14,3.14,0,0,0-3.32,3.32v23.23h-6.64ZM818,457.41V437.5h6.64v19.91Zm46.47,0H844.57V417.58h19.92Z" transform="translate(-250.73 -264.55)"/><path class="cls-2" d="M275.65,394.5c0,2-5.18,6.39-11.85,6.39-5,0-8.38-2.41-8.38-8.59v-23l-2.63-.08c-1.35,0-2.06-.63-2.06-1.56,0-1.35,1.64-3.05,3.55-5,1.57-1.49,3.27-3.19,4.55-3.19.92,0,1.56.71,1.56,2v4.26h10.72c2.27,0,3.69.21,3.69,1.7s-.78,1.77-3.69,1.77H260.39v20.67c0,4.47,1.21,6.74,5.39,6.74,4.62,0,7.39-3.19,8.88-3.19A1.07,1.07,0,0,1,275.65,394.5Z" transform="translate(-250.73 -264.55)"/><path class="cls-2" d="M317.83,398.62c0,1.49-3.06,2.06-8,2.06-5.89,0-8.94-.57-8.94-2.06,0-1.14,1.42-1.42,5.61-1.42.57-.5.78-4.26.78-8.88V379.8c0-7.74-2.56-11.29-8.52-11.29-5.33,0-11.5,3.91-11.5,14.13v5.68c0,5.33.21,8.38.71,8.88,4.19.07,5.61.28,5.61,1.42,0,1.56-3.06,2.06-8.88,2.06-5.18,0-8.09-.57-8.09-2.06,0-1.14,1.56-1.42,5-1.42.56-.5.71-2.13.71-8.88v-26c0-3.77-.15-8.1-.78-8.88-4.69-.07-5.68-.71-5.68-1.56,0-.57.42-1,1.27-1.42a31.11,31.11,0,0,1,8.45-2c1.42,0,1.85.93,1.85,2.49,0,2.48-.14,6.46-.14,12.28v10.22a13.65,13.65,0,0,1,13.27-8.94c6.11,0,11.72,3.41,11.72,13.56v10.22c0,5.75-.07,8.1.57,8.88C316.27,397.27,317.83,397.48,317.83,398.62Z" transform="translate(-250.73 -264.55)"/><path class="cls-2" d="M320.88,398.62c0-1.14,1.56-1.42,4.9-1.42.57-.5.71-2.2.71-8.88v-8.94c0-3.84-.14-8.52-.71-9.3-4.62-.07-5.54-.71-5.54-1.57,0-.56.36-1,1.28-1.42a31.17,31.17,0,0,1,8.31-2c1.42,0,1.77.92,1.77,2.55,0,2.42-.14,6.82-.14,12.64v8c0,5.4.21,8.38.71,8.88,3.34.07,4.9.28,4.9,1.42,0,1.49-3,2.06-8.1,2.06S320.88,400.11,320.88,398.62ZM324.71,354a3.72,3.72,0,0,1,3.91-3.9,3.49,3.49,0,0,1,3.62,3.83,3.64,3.64,0,0,1-3.83,3.83A3.53,3.53,0,0,1,324.71,354Z" transform="translate(-250.73 -264.55)"/><path class="cls-2" d="M369.94,390.52c0,6.61-6,10.94-13.56,10.94a16.17,16.17,0,0,1-10.08-3.2,4.57,4.57,0,0,1,.21,1.35c0,.78-.35,1.64-1.21,1.64-2.06,0-4.33-6.61-4.33-10.58,0-2.06.5-2.84,1.35-2.84,1.21,0,1.42,1.77,2.27,3.62a12.88,12.88,0,0,0,11.58,7c4.33,0,9.08-1.92,9.08-6.89,0-5.33-5.25-5.75-10.65-6.68-5.82-.92-13.13-2.2-13.13-9.65,0-6.68,6.32-10.44,12.71-10.44,3.19,0,6.81.78,9.23,2.56a6.34,6.34,0,0,1-.14-1.14c0-.78.35-1.49,1.13-1.49,1.85,0,4.12,6.32,4.12,10,0,1.71-.5,2.49-1.35,2.49s-1.35-1.07-2.2-3.13c-1.42-3.69-5.68-6.32-10.58-6.32s-8.23,2.7-8.23,6.46c0,4.62,4.61,5.05,9.94,5.9C362.41,381.15,369.94,382.57,369.94,390.52Z" transform="translate(-250.73 -264.55)"/><path class="cls-3" d="M317,465.67c0,16.6-22.79,22.55-36.41,22.55-16.84,0-25.31-6.07-25.31-13.28a10.57,10.57,0,0,1,6.76-9.5c-3.78-2.52-5.5-6.07-5.5-9.39,0-4.93,3.32-9.16,8.82-12.37-6.07-3.55-9.51-9-9.51-15.69,0-12.36,11.57-21.64,28.51-21.64a32,32,0,0,1,15.35,3.44c4.35-1.15,7.1-3.44,9.5-4.58a8.83,8.83,0,0,1,3.66-1.15c1.84,0,2.75,1.61,2.75,3.32,0,3-2.86,8-7.1,11.68a17.73,17.73,0,0,1,1.26,6.53c0,12.37-12,21.76-28.62,21.76a42.4,42.4,0,0,1-9.62-1.15c-2.29,1.72-2.75,3.09-2.75,4.58,0,2.52,3,3.78,7.9,3.78,10.31,0,19.7-2.52,26.91-2.52C310.45,452,317,456.73,317,465.67Zm-13.74,4.8c0-2.63-1.95-3.43-4.7-3.43-4.35,0-14.31,1.83-23,1.83a28.7,28.7,0,0,1-6.64-.69,4.73,4.73,0,0,0-2.41,4.36c0,3.32,4.35,7.78,15.35,7.78C293.28,480.32,303.24,475.4,303.24,470.47Zm-31.95-45.22c0,7.32,4.12,15.23,11.91,15.23,6.87,0,11.11-4.58,11.11-11.91s-4.24-15.12-11.91-15.12C275.64,413.45,271.29,417.92,271.29,425.25Z" transform="translate(-250.73 -264.55)"/><path class="cls-3" d="M380.75,457.88c0,3.66-4.12,8.24-11.56,8.24-6,0-10.42-2.86-12.6-9.5-3.66,6.64-10.07,10.31-18.66,10.31-10.65,0-18.44-6.53-18.44-16.61,0-11.45,10.08-19,24.39-19a46.64,46.64,0,0,1,12.37,1.94v-6.41c0-5.5-.46-12.82-7.33-12.82-3.78,0-6.87,3.09-10,7-2.06,2.86-4.69,5.95-9.39,5.95-3.66,0-6.07-2.4-6.07-5.49,0-6.76,16.15-15.12,29.89-15.12,12.82,0,20,6.76,20,19v20.5c0,5.84.46,9.39,6.42,10.76A1.14,1.14,0,0,1,380.75,457.88Zm-24.27-13.4v-3.2a17.49,17.49,0,0,0-8.82-2.41c-7,0-11,3.44-11,8.93,0,5.16,2.86,8.93,8.7,8.93C350.75,456.73,356.48,452,356.48,444.48Z" transform="translate(-250.73 -264.55)"/><path class="cls-3" d="M436.86,416.89c0,6.64-3.44,10.65-8.48,10.65a9.1,9.1,0,0,1-7-3.32c-1.26-1.26-2.52-2.75-4.24-2.75-3.2,0-7.44,4.81-7.44,12.48v13.17c0,6.41.46,9.27,2.18,9.5,4.81.57,7.1,1.72,7.1,4.35,0,4-7,5.15-17.87,5.15-10,0-15.8-1.37-15.8-5.15,0-2.63,2.18-3.66,5.38-4.12,1.72-.23,1.83-4.58,1.83-9.73V429.6c0-4.47-.22-10-2.06-10.19-4.35-.58-5.84-2.06-5.84-3.9,0-1.48.69-2.63,2.52-3.66,4.81-2.75,13.86-4.69,17.64-4.69,4.35,0,5,2.86,5,8.47v5.15c3.67-8.93,10.54-14.31,17.07-14.31C432.28,406.47,436.86,410.13,436.86,416.89Z" transform="translate(-250.73 -264.55)"/><path class="cls-3" d="M508.19,458.11c0,1.49-.69,2.63-2.52,3.66-4.92,2.75-13.51,4.7-17.06,4.7-4.35,0-5-2.87-5-8.48,0-1.26,0-2.86.12-4.69a22.54,22.54,0,0,1-20.84,13.63c-13.63,0-23.48-12-23.48-29.43,0-19.12,11.45-31.15,27.83-31.15,6.87,0,12.25,2.29,15.91,5.61v-8.58c0-4.47-1-10-3.43-10.19-4.24-.46-6.41-2.18-6.41-4s.8-2.75,2.86-3.78c5.5-2.75,15.34-4.69,19.24-4.69,4.35,0,5,2.86,5,8.47,0,4-.11,9.39-.11,16.49V444c0,4.47.23,10,2.06,10.2C506.7,454.79,508.19,456.28,508.19,458.11Zm-24.85-23.93c-.11-14.66-5.49-20.27-12.59-20.27-8.59,0-13.28,7.67-13.28,21.3,0,14.08,5.26,20.84,12.59,20.84C477.16,456.05,483.46,449.64,483.34,434.18Z" transform="translate(-250.73 -264.55)"/><path class="cls-3" d="M567.5,448.38c0,2.4-1.37,5.61-3.89,8.58-4.24,5.27-12.14,10.19-23.13,10.19-16.72,0-28.17-12-28.17-29.19,0-18.55,13.51-31.61,30.23-31.61,15.46,0,24.62,10.65,24.62,20.5,0,5.38-3,9.27-8.48,9.27H528c1.37,10,7.67,16.38,17.63,16.38a21.64,21.64,0,0,0,15-6.07c1.26-1,2.41-1.83,3.66-1.83C566.24,444.6,567.5,445.86,567.5,448.38Zm-39.62-19.7,17.87-.11c4.69,0,6.87-1.49,6.87-4.81,0-5.38-4-10.19-10.77-10.19C534.07,413.57,528.91,419.52,527.88,428.68Z" transform="translate(-250.73 -264.55)"/><path class="cls-3" d="M644.9,461c0,4-6.41,5.15-15.8,5.15-10,0-15.8-1.37-15.8-5.15,0-2.63,2.17-3.66,5.38-4.12,1.72-.23,1.83-4.58,1.83-9.73V434.86c0-11.9-3-16.6-10-16.6-6.3,0-12.48,5-12.48,19.12v9.74c0,6.64,0,9.39,1.72,9.73,3.43.69,5.49,1.49,5.49,4.12,0,4-6.41,5.15-15.8,5.15-10,0-15.8-1.37-15.8-5.15,0-2.63,2.18-3.66,5.38-4.12,1.72-.23,1.84-4.58,1.84-9.73V429.6c0-4.47-.23-10-2.07-10.19-4.35-.58-5.83-2.06-5.83-3.9,0-1.48.68-2.63,2.51-3.66,4.81-2.75,13.86-4.69,17.64-4.69,4.35,0,5,2.86,5,8.47V420a22.6,22.6,0,0,1,21-13.51c10.65,0,18.55,6.64,18.55,21.52v19.13c0,6.64,0,9.39,1.72,9.73C642.84,457.42,644.9,458.34,644.9,461Z" transform="translate(-250.73 -264.55)"/></svg>